HIERARCHY
ROOT root     
{
	OFFSET 0.0000 0.0000 0.0000
	CHANNELS 6 Xposition Yposition Zposition Zrotation Yrotation Xrotation
	JOINT pelvis   
	{
		OFFSET 0.0000 0.0000 0.0000
		CHANNELS 3 Zrotation Yrotation Xrotation
		JOINT thorax   
		{
			OFFSET 0.0000 23.0750 -5.0000
			CHANNELS 3 Zrotation Yrotation Xrotation
			JOINT rclavicle
			{
				OFFSET 0.0000 28.0009 0.0000
				CHANNELS 3 Zrotation Yrotation Xrotation
				JOINT rhumerus 
				{
					OFFSET -18.5725 5.5939 0.0000
					CHANNELS 3 Zrotation Yrotation Xrotation
					JOINT rradius  
					{
						OFFSET -24.8459 0.0000 0.0000
						CHANNELS 3 Zrotation Yrotation Xrotation
						JOINT rhand    
						{
							OFFSET -24.5477 0.0000 0.0000
							CHANNELS 3 Zrotation Yrotation Xrotation
							End Site
							{
								OFFSET -8.1826 0.0000 0.0000
							}
						}
					}
				}
			}
			JOINT lclavicle
			{
				OFFSET 0.0000 28.0009 0.0000
				CHANNELS 3 Zrotation Yrotation Xrotation
				JOINT lhumerus 
				{
					OFFSET 18.5725 5.5939 0.0000
					CHANNELS 3 Zrotation Yrotation Xrotation
					JOINT lradius  
					{
						OFFSET 24.8459 0.0000 0.0000
						CHANNELS 3 Zrotation Yrotation Xrotation
						JOINT lhand    
						{
							OFFSET 24.5477 0.0000 0.0000
							CHANNELS 3 Zrotation Yrotation Xrotation
							End Site
							{
								OFFSET 8.1826 0.0000 0.0000
							}
						}
					}
				}
			}
			JOINT head     
			{
				OFFSET 0.0000 35.2030 0.0000
				CHANNELS 3 Zrotation Yrotation Xrotation
				End Site
				{
					OFFSET 0.0000 11.7343 0.0000
				}
			}
		}
		JOINT rfemur   
		{
			OFFSET -8.2817 0.0000 0.0000
			CHANNELS 3 Zrotation Yrotation Xrotation
			JOINT rtibia   
			{
				OFFSET 0.0000 -43.3627 0.0000
				CHANNELS 3 Zrotation Yrotation Xrotation
				JOINT rfoot    
				{
					OFFSET 0.0000 -38.2947 0.0000
					CHANNELS 3 Zrotation Yrotation Xrotation
					JOINT rtoes    
					{
						OFFSET 0.0000 0.0000 16.6054
						CHANNELS 3 Zrotation Yrotation Xrotation
						End Site
						{
							OFFSET 0.0000 0.0000 5.5351
						}
					}
				}
			}
		}
		JOINT lfemur   
		{
			OFFSET 8.2817 0.0000 0.0000
			CHANNELS 3 Zrotation Yrotation Xrotation
			JOINT ltibia   
			{
				OFFSET 0.0000 -43.3627 0.0000
				CHANNELS 3 Zrotation Yrotation Xrotation
				JOINT lfoot    
				{
					OFFSET 0.0000 -38.2947 0.0000
					CHANNELS 3 Zrotation Yrotation Xrotation
					JOINT ltoes    
					{
						OFFSET 0.0000 0.0000 16.6054
						CHANNELS 3 Zrotation Yrotation Xrotation
						End Site
						{
							OFFSET 0.0000 0.0000 5.5351
						}
					}
				}
			}
		}
	}
}
MOTION
Frames: 11
Frame Time: .0333333
-21.685 84.865 13.255 131.198 -83.2808 -118.17 0 -0 0 -7.92571 -0.823597 -8.5094 27.4133 -7.61309 3.36505e-05 56.0102 8.99552 7.014 9.26354e-07 73.9138 1.23122e-06 -3.67934 9.51238 -0.306195 -26.9203 14.0616 0.000164516 -47.1945 2.52778 -10.3864 5.43554e-07 -57.6321 -9.88061e-07 10.975 -2.73456 -0.26279 6.33266 7.51597 5.67263 -14.0223 -5.91764 -12.0705 -0 -0 60.234 5.43115e-05 -10.08 26.8862 -4.59612 2.71444e-05 -57.4052 -7.98059 -0.154941 -21.3757 -0 -0 28.1024 8.51244e-06 9.46007 -2.64254 -0.440199 -2.04798e-06 -36.2485 
-22.631 85.207 13.186 130.448 -83.63 -117.397 0 -0 0 -7.42953 -1.75706 -8.53247 27.4407 -7.71249 -5.38085e-05 55.8586 8.63177 6.26604 -1.14359e-06 72.4769 -8.38171e-07 -3.81202 9.24851 -0.308492 -26.9918 13.99 -3.3143e-05 -47.7519 2.23308 -9.13828 0 -58.1507 0 10.4333 -2.56328 -0.2341 6.35914 7.30406 6.12946 -13.5611 -6.09106 -13.1393 -0 -0 60.5831 -2.48631e-05 -11.0731 25.0049 -4.72884 -5.9198e-05 -55.3231 -7.70096 -0.131732 -20.1622 -0 -0 26.8511 -3.75122e-06 9.15743 -1.89036 -0.304704 -8.28531e-07 -36.4286 
-23.552 85.547 13.107 128.947 -84.0431 -115.832 0 -0 0 -6.92036 -2.75225 -8.56148 27.4806 -7.82785 3.28126e-05 55.5925 8.26362 5.49445 -1.07432e-06 71.1434 -7.6833e-07 -3.81628 9.04456 -0.301899 -27.0283 13.8997 -1.45883e-05 -48.2397 1.90271 -7.81091 0 -58.7504 0 9.88985 -2.38622 -0.206504 6.41393 7.02817 6.47796 -13.0763 -6.30465 -14.2144 -0 -0 60.758 -2.51293e-05 -11.5834 23.3008 -4.63527 3.57021e-05 -53.5324 -7.39174 -0.120981 -19.0408 -0 -0 25.6423 -2.76574e-07 8.80407 -1.11601 -0.172807 -2.02327e-06 -36.8514 
-24.451 85.883 13.019 126.686 -84.5033 -113.473 0 -0 0 -6.40535 -3.77401 -8.59247 27.5305 -7.95053 -7.44734e-05 55.2288 7.87625 4.68013 -0 69.9211 -0 -3.71871 8.90855 -0.289802 -27.0318 13.7608 -0.000159308 -48.6554 1.56891 -6.43937 5.88652e-07 -59.4398 -1.03119e-06 9.37172 -2.22515 -0.182397 6.48161 6.68995 6.71336 -12.5818 -6.54894 -15.2982 -0 -0 60.7686 -4.47975e-05 -11.687 21.8289 -4.3983 3.58729e-05 -52.2153 -7.06254 -0.0976616 -18.0046 -0 -0 24.4781 -2.04633e-07 8.40128 -0.329201 -0.0486005 -1.34897e-07 -37.5606 
-25.334 86.21 12.922 123.631 -84.9677 -110.301 0 -0 0 -5.88252 -4.79214 -8.61399 27.5874 -8.08587 7.1148e-06 54.7781 7.47867 3.82689 6.67509e-07 68.8164 9.74591e-07 -3.56063 8.83504 -0.275201 -27.0031 13.5914 -7.40399e-05 -49.0065 1.19928 -5.02811 4.30617e-07 -60.1923 -7.42977e-07 8.90748 -2.10692 -0.164104 6.54249 6.29596 6.83185 -12.0864 -6.81404 -16.3852 -0 -0 60.6197 -6.04749e-06 -11.4677 20.5993 -4.08252 7.10582e-06 -51.4166 -6.71775 -0.0351922 -17.0447 -0 -0 23.3617 -5.92821e-07 7.94626 0.465098 0.0648991 -8.43027e-07 -38.5664 
-26.205 86.526 12.819 119.769 -85.4361 -106.312 0 -0 0 -5.35112 -5.78241 -8.61885 27.6475 -8.2332 7.21166e-05 54.2567 7.07413 2.93383 0 67.8217 0 -3.38154 8.8105 -0.260605 -26.945 13.3905 -6.83793e-05 -49.296 0.798256 -3.59488 0 -61.0041 0 8.52078 -2.05055 -0.152803 6.57674 5.85433 6.83785 -11.596 -7.09024 -17.4662 -0 -0 60.3142 -5.30707e-05 -11.0127 19.5937 -3.73398 -6.46984e-06 -51.1501 -6.36124 0.0842213 -16.1473 -0 -0 22.2957 1.89727e-06 7.43968 1.26734 0.165495 -6.14852e-07 -39.8436 
-27.068 86.827 12.713 115.016 -85.8684 -101.428 0 -0 0 -4.82159 -6.72886 -8.60262 27.7106 -8.3968 2.30738e-05 53.6755 6.67305 2.0111 0 66.9351 0 -3.22573 8.80982 -0.248602 -26.8573 13.1709 2.95587e-05 -49.5287 0.357171 -2.14628 -7.76641e-07 -61.8708 4.6546e-07 8.23177 -2.06739 -0.148798 6.56956 5.37393 6.74039 -11.1267 -7.37412 -18.5354 -0 -0 59.8525 1.57168e-05 -10.4016 18.7706 -3.38025 5.48641e-05 -51.3488 -6.00577 0.256489 -15.2999 -0 -0 21.278 4.13605e-06 6.89612 2.08307 0.251901 -1.77473e-06 -41.3119 
-27.928 87.11 12.6 109.439 -86.2798 -95.7344 0 -0 0 -4.26094 -7.61716 -8.56383 27.748 -8.53553 -4.52986e-05 53.0833 6.22696 1.00612 5.76662e-07 66.1675 8.85161e-07 -3.08972 8.81945 -0.2383 -26.7469 12.8752 8.78423e-05 -49.7148 -0.030494 -0.745486 0 -62.8347 0 8.04333 -2.16412 -0.152202 6.49532 4.86256 6.55782 -10.6507 -7.64525 -19.5725 -0 -0 59.2221 -1.02754e-05 -9.72312 18.0815 -3.04407 4.668e-05 -51.9417 -5.62921 0.516145 -14.491 -0 -0 20.332 6.39707e-06 6.2905 2.90056 0.319595 -5.72843e-06 -42.9145 
-28.788 87.374 12.486 102.924 -86.6476 -89.1086 0 -0 0 -3.6997 -8.44832 -8.50231 27.7741 -8.69341 3.66153e-05 52.4694 5.79841 -0.0152936 7.872e-07 65.4911 1.22404e-06 -3.03576 8.80252 -0.233707 -26.6088 12.5871 -0.000102547 -49.8523 -0.463196 0.654995 5.12224e-07 -63.8523 -8.22104e-07 7.96482 -2.33379 -0.162499 6.35116 4.33018 6.30044 -10.1995 -7.90793 -20.5753 -0 -0 58.4258 3.71934e-05 -9.03251 17.4649 -2.73151 2.48492e-05 -52.7317 -5.25707 0.821327 -13.7142 -0 -0 19.4442 1.42249e-06 5.66119 3.7299 0.369504 6.31354e-06 -44.5228 
-29.649 87.617 12.37 95.5285 -86.9422 -81.6128 0 -0 0 -3.13084 -9.22166 -8.42476 27.7793 -8.85051 -1.8154e-05 51.8629 5.36449 -1.07521 -8.49496e-07 64.9125 -5.40266e-07 -3.06147 8.74197 -0.234096 -26.4488 12.2857 -5.71369e-05 -49.9417 -0.897011 2.02461 7.65373e-07 -64.944 -1.20268e-06 7.98641 -2.56391 -0.179005 6.12679 3.78286 5.9875 -9.76544 -8.14996 -21.5338 -0 -0 57.4536 -4.43853e-05 -8.38478 16.8774 -2.45028 -2.23545e-06 -53.5603 -4.88457 1.16753 -12.9628 -0 -0 18.623 -4.06144e-06 5.01138 4.5637 0.399793 1.712e-06 -46.0532 
-30.462 87.843 12.223 67.2656 -87.0494 -53.1283 0 -0 0 -2.13405 -10.8905 -8.47996 27.7202 -9.01483 1.22847e-05 51.2526 4.91976 -2.16318 -0 64.4222 -0 -3.17279 8.62444 -0.2393 -26.344 11.9848 6.82721e-05 -49.9534 -1.32071 3.36188 -8.83718e-07 -66.1176 5.75185e-07 8.09238 -2.83324 -0.200407 5.75957 3.22224 5.64974 -8.9894 -9.34207 -22.3126 -0 -0 56.1675 -1.47769e-05 -7.82834 16.2704 -2.20591 1.32958e-05 -54.2315 -4.15409 0.576716 -12.6244 -0 -0 18.2407 2.39927e-06 4.33591 5.32306 0.402989 5.90261e-07 -47.4226 
